<svg id="Layer_1" data-name="Layer 1" xmlns="http://www.w3.org/2000/svg" viewBox="0 0 512 512"><defs><style>.cls-1{fill:#ef6603;}</style></defs><g id="Page-1"><g id="_026---Idea" data-name="026---Idea"><path id="Shape" class="cls-1" d="M470.55,268.4a17.06,17.06,0,0,0-16.75-13.85H437.32l-1.21-7.26a17.14,17.14,0,0,0-14.26-14.14c-1.62-.26-3.26-.43-4.87-.65a52.06,52.06,0,0,0-6.48-38.05,34.92,34.92,0,0,0-25.31-46.71,72.59,72.59,0,0,0-70.93-59.27c-.86,0-1.62.11-2.43.13a34.71,34.71,0,0,0-53.1-6.6,58.51,58.51,0,0,0-31.86-9.47,59.28,59.28,0,0,0-46.58,22.94A42.51,42.51,0,0,0,126,133.67,35.09,35.09,0,0,0,104.46,166a34.31,34.31,0,0,0,.85,7.28,68.67,68.67,0,0,0-8.18,58.88c-2.29.32-4.63.6-6.83.93a17.15,17.15,0,0,0-14.37,14.13l-1.21,7.28H58.2a17.08,17.08,0,0,0-16.75,13.82L4.09,460.19a25.6,25.6,0,0,0,25.18,30.48h178c7.07,11.65,28.54,17.06,48.78,17.06,20,0,41.29-5.28,48.56-17.06H482.73a25.61,25.61,0,0,0,25.18-30.48ZM130.26,181.47A18,18,0,0,1,139.48,148a17.68,17.68,0,0,1,14.32,7.24,8.54,8.54,0,0,0,13.71-10.17,34.5,34.5,0,0,0-24.2-13.66,25.94,25.94,0,0,1,25.3-20.54,29.56,29.56,0,0,1,3.11.34,56,56,0,0,0-1.8,5.35,8.53,8.53,0,0,0,16.52,4.26A41.7,41.7,0,0,1,226.87,89.6a41.47,41.47,0,0,1,22.6,6.83,34.65,34.65,0,0,0-2,11.18,8.53,8.53,0,1,0,17.06,0,18,18,0,1,1,35.9,0,8.54,8.54,0,1,0,17.07,0c0-.65-.16-1.28-.2-1.93a55.38,55.38,0,0,1,50.54,42.71,34.66,34.66,0,0,0-11,5.51A8.53,8.53,0,1,0,367,167.55a18,18,0,0,1,26.38,23.27,18.22,18.22,0,0,1-8.08,7.48A8.53,8.53,0,0,0,389,214.51a8.35,8.35,0,0,0,3.61-.81,35.66,35.66,0,0,0,6.38-4,36.45,36.45,0,0,1-7.22,36.39l-.21.21a36.84,36.84,0,0,1-43.52,8,34.73,34.73,0,0,1-4.13-2.58,29,29,0,0,0,2.26-30,8.54,8.54,0,1,0-15.25,7.68,12.71,12.71,0,0,1-4.12,16.08,12.87,12.87,0,0,1-18.53-4.73A8.54,8.54,0,0,0,293,248.37a29.6,29.6,0,0,0,26.59,16.45,29.3,29.3,0,0,0,10.71-2.1,50.78,50.78,0,0,0,10,6.82,52.59,52.59,0,0,0,39.42,3.65,54.37,54.37,0,0,1-35.14,21.54,8.54,8.54,0,0,0,1.34,17,10.37,10.37,0,0,0,1.36-.1,70.57,70.57,0,0,0,15.13-4.42,75.63,75.63,0,0,1,6.37,14.65,8.89,8.89,0,0,1,.44,2.75,9.21,9.21,0,0,1-5.59,8.47,9.66,9.66,0,0,1-11-3,54.49,54.49,0,0,0-25-16.6c-18.44-6.18-25.56-11.7-28.58-17.71A81.18,81.18,0,0,0,312.12,293a8.53,8.53,0,1,0-5-16.31,64.71,64.71,0,0,1-14.73,2.7,63.23,63.23,0,0,1-28.28-4.26,8.54,8.54,0,0,0-9.57,2.38,36.54,36.54,0,0,1-58.93-42.73,8.56,8.56,0,1,0-14.68-8.8A52.84,52.84,0,0,0,176,237a12.8,12.8,0,0,1-12.13-12.57v-.22a8.43,8.43,0,0,0-8.53-8.42,8.62,8.62,0,0,0-8.54,8.64,29.71,29.71,0,0,0,26.5,29.45,53.05,53.05,0,0,0,.78,8.53,52.15,52.15,0,0,1-59-71.42,34.44,34.44,0,0,0,6.35,5.06,8.53,8.53,0,0,0,8.8-14.61ZM92.71,250c3.94-.58,8-1.09,12-1.62a68.89,68.89,0,0,0,74.83,30.36A53.46,53.46,0,0,0,263.31,293a81.64,81.64,0,0,0,17.81,3.22c4.12,15.64,16,25.11,41.06,33.5a37.82,37.82,0,0,1,17.38,11.44,27.2,27.2,0,0,0,20.61,9.69,25.89,25.89,0,0,0,10.13-2.07,26.26,26.26,0,0,0,15.95-24.16A25.43,25.43,0,0,0,385,316.5a92.88,92.88,0,0,0-7.55-17.36,72,72,0,0,0,28.36-43.37,52.75,52.75,0,0,0,4.91-6.88c2.86.37,5.72.69,8.6,1.17l30.8,185.29a293,293,0,0,0-185.55,0V328.53a8.53,8.53,0,1,0-17.06,0V435.39a293,293,0,0,0-185.55-.07ZM22.62,470.46a8.47,8.47,0,0,1-1.79-7L58.2,271.62H71.85L45.07,432.55a17.13,17.13,0,0,0,22,19.06A285.44,285.44,0,0,1,208,442.67L205.5,473.6H29.27A8.62,8.62,0,0,1,22.62,470.46ZM256,490.67c-20.56,0-32.35-6.08-34.08-8.78l2.93-35.42a182.6,182.6,0,0,1,27.46,9.21,8.56,8.56,0,0,0,3.69.85,8.42,8.42,0,0,0,3.69-.85,182.84,182.84,0,0,1,27.46-9.27l2.93,35.47c-1.73,2.71-13.52,8.79-34.08,8.79Zm233.38-20.21a8.6,8.6,0,0,1-6.65,3.14H306.53l-2.56-31a285.46,285.46,0,0,1,141,9,17.13,17.13,0,0,0,21.95-19.11l-26.75-160.9h13.65L491.2,463.45a8.5,8.5,0,0,1-1.82,7Z"/><path id="Shape-2" data-name="Shape" class="cls-1" d="M227.72,197.85a8.53,8.53,0,0,0-.61,12,51.42,51.42,0,0,0,27.35,15.77,25.38,25.38,0,0,1-20.77,10.71,8.54,8.54,0,0,0,0,17.07,42.31,42.31,0,0,0,39.76-27.37,51.49,51.49,0,0,0,42.13-41,8.53,8.53,0,1,0-16.76-3.2,34,34,0,0,1-14.13,21.66,34.84,34.84,0,0,1-44.92-5.12,8.54,8.54,0,0,0-12.05-.6Z"/><path id="Shape-3" data-name="Shape" class="cls-1" d="M198,188.59a8.54,8.54,0,0,0,8.54-8.54,22.18,22.18,0,0,1,22.18-22.18,8.54,8.54,0,1,0,0-17.07,39.28,39.28,0,0,0-39.25,39.25,8.54,8.54,0,0,0,8.53,8.54Z"/><path id="Shape-4" data-name="Shape" class="cls-1" d="M264.53,21.33V12.8a8.53,8.53,0,1,0-17.06,0v8.53a8.53,8.53,0,1,0,17.06,0Z"/><path id="Shape-5" data-name="Shape" class="cls-1" d="M396,65.5,387.5,74A8.53,8.53,0,1,0,399.56,86.1l8.54-8.53A8.54,8.54,0,1,0,396,65.5Z"/><path id="Shape-6" data-name="Shape" class="cls-1" d="M118.47,88.6a8.53,8.53,0,0,0,6-14.56L116,65.5A8.54,8.54,0,1,0,103.9,77.57l8.54,8.53A8.53,8.53,0,0,0,118.47,88.6Z"/><path id="Shape-7" data-name="Shape" class="cls-1" d="M184.16,52.69A8.52,8.52,0,0,0,192,40.89l-9.8-23.65a8.53,8.53,0,1,0-15.76,6.53l9.79,23.66a8.53,8.53,0,0,0,7.89,5.26Z"/><path id="Shape-8" data-name="Shape" class="cls-1" d="M340.91,12.62a8.54,8.54,0,0,0-11.15,4.62L320,40.89a8.54,8.54,0,0,0,15.77,6.55l9.79-23.66a8.53,8.53,0,0,0-4.61-11.16Z"/><path id="Shape-9" data-name="Shape" class="cls-1" d="M429.44,154.3a8.56,8.56,0,0,0,3.27-.66l23.64-9.79a8.53,8.53,0,1,0-6.52-15.77l-23.66,9.79a8.53,8.53,0,0,0,3.27,16.43Z"/><path id="Shape-10" data-name="Shape" class="cls-1" d="M79.29,153.64a8.54,8.54,0,0,0,6.54-15.77l-23.66-9.79a8.53,8.53,0,0,0-6.52,15.77Z"/></g></g></svg>