<svg id="Capa_1" data-name="Capa 1" xmlns="http://www.w3.org/2000/svg" viewBox="0 0 512 512"><defs><style>.cls-1{fill:#ef6603;}</style></defs><path class="cls-1" d="M422.29,195.54a10,10,0,0,0-14.15,14.15l.47.45a10,10,0,1,0,13.68-14.6Z"/><path class="cls-1" d="M402,179.12a155.89,155.89,0,0,0-17.47-10.31c-33.18-16.7-68.35-20.05-101.7-9.69a10,10,0,0,0,5.93,19.1c28.31-8.79,58.31-5.87,86.78,8.46a139.71,139.71,0,0,1,15.23,9A10,10,0,1,0,402,179.12Z"/><path class="cls-1" d="M493,308.53c-4.1-8.6-10.89-22.84-11-27.55,11.69-28.83,7.42-60.73-12.05-89.9-30-44.88-91.35-77.45-146-77.45a178.92,178.92,0,0,0-82.45,20,85.6,85.6,0,1,0-128.86,88.44c7.39,4.53,9.06,8.44,9.65,14.86v58.51a20.27,20.27,0,0,0,20.25,20.25h3.4A178.09,178.09,0,0,0,206.22,428.5c.32,1,1.24,5.62-2.73,19.44-3.1,10.76-7.85,22.72-12,33.27-2.8,7.06-5.22,13.15-6.69,17.76a10,10,0,0,0,9.53,13H337c4.69,0,11.13-2.1,15.19-12.1,1.76-4.36,2.91-9.6,4.13-15.14s4-18.06,6.75-19.59a1.88,1.88,0,0,1,.55,0,10.12,10.12,0,0,0,1.55.12c15,0,27.17.68,38,1.28,31.6,1.75,50.68,2.81,67.42-21.3,8.51-12.26,7.55-30.14,6.53-49.08-.53-9.75-1.07-19.83-.11-28.2a87.62,87.62,0,0,1,8.86-6.6c9.42-6.47,18.33-12.59,18.33-21.88C504.19,332.47,499.92,323.15,493,308.53ZM123.06,205.06a65.61,65.61,0,1,1,68.44,0c-9.34,5.72-14.89,12.4-17.53,21.42H140.59C138,217.46,132.4,210.78,123.06,205.06Zm49.23,41.42v14.63h-30V246.48Zm-29.78,49.25a.29.29,0,0,1-.24-.25V281.11h30v14.37a.28.28,0,0,1-.24.25Zm332,49.2c-8.61,5.91-16,11-17.14,18.74-1.51,10.6-.87,22.31-.26,33.63.75,14.05,1.61,30-3,36.6-9.95,14.33-18.55,14.47-49.89,12.73-10.33-.58-23.16-1.29-38.37-1.31-5.84-.69-15.73.41-22.32,13.23-3.35,6.51-5.15,14.69-6.74,21.91a107.07,107.07,0,0,1-3,11.54H208.69l1.35-3.41c14.41-36.27,23.53-62.88,9.64-74.88a158.33,158.33,0,0,1-53.59-98h6a20.27,20.27,0,0,0,20.24-20.25V237c.6-6.43,2.26-10.35,9.66-14.88a85,85,0,0,0,40.66-66.2,159,159,0,0,1,81.31-22.28c47.64,0,103.25,29.47,129.33,68.55,11.18,16.75,22,42.8,9.93,71.81-3.92,9.45,1.9,22.55,11.71,43.15,3.18,6.66,7.78,16.31,9,20.82A95.14,95.14,0,0,1,474.54,344.93Z"/><path class="cls-1" d="M206.33,134.94c-3-11-10.29-19.71-21.23-25.36a10,10,0,0,0-9.17,17.78c6,3.08,9.6,7.26,11.09,12.79,2.36,8.74-1.21,18.2-2.77,20.66a10,10,0,0,0,16.86,10.75C205.38,164.87,210.29,149.6,206.33,134.94Z"/><path class="cls-1" d="M157.28,0a10,10,0,0,0-10,10V38.51a10,10,0,0,0,20,0V10A10,10,0,0,0,157.28,0Z"/><path class="cls-1" d="M46.32,139.46H17.82a10,10,0,1,0,0,20h28.5a10,10,0,0,0,0-20Z"/><path class="cls-1" d="M110.46,48.36,96.21,23.68a10,10,0,0,0-17.32,10L93.14,58.36a10,10,0,1,0,17.32-10Z"/><path class="cls-1" d="M66.18,85.32,41.5,71.07a10,10,0,0,0-10,17.33l24.68,14.25a10,10,0,0,0,10-17.33Z"/><path class="cls-1" d="M286.73,74.73a10,10,0,0,0-13.66-3.66L248.38,85.32a10,10,0,1,0,10,17.32l24.69-14.25A10,10,0,0,0,286.73,74.73Z"/><path class="cls-1" d="M69.84,200a10,10,0,0,0-13.65-3.66L31.5,210.54a10,10,0,1,0,10,17.32l24.68-14.25A10,10,0,0,0,69.84,200Z"/><path class="cls-1" d="M104.74,240.47a10,10,0,0,0-13.66,3.66L78.89,265.25a10,10,0,1,0,17.32,10l12.19-21.12A10,10,0,0,0,104.74,240.47Z"/><path class="cls-1" d="M232,20a10,10,0,0,0-13.66,3.66L204.1,48.36a10,10,0,1,0,17.32,10l14.25-24.68A10,10,0,0,0,232,20Z"/></svg>