<svg id="Capa_1" data-name="Capa 1" xmlns="http://www.w3.org/2000/svg" viewBox="0 0 512 512"><defs><style>.cls-1{fill:#ef6603;}</style></defs><path class="cls-1" d="M288.42,0a7.5,7.5,0,0,0-7.5,7.5V53.19H194.46a14.75,14.75,0,0,0-14.73,14.74V246.82L66.78,318.34a27.75,27.75,0,0,0-13,23.56V497a7.5,7.5,0,0,0,.11,15H458.08a7.5,7.5,0,0,0,.09-15V371.55a7.5,7.5,0,0,0-15,0V497H329.66V212.23H443.17V336.55a7.5,7.5,0,0,0,15,0V212a14.75,14.75,0,0,0-14.74-14.74h-46.3V67.93a14.75,14.75,0,0,0-14.74-14.74H357.16a7.5,7.5,0,0,0,0,15h25v129H363.39V97.1a7.5,7.5,0,0,0-15,0V197.23H329.66V97.1a7.5,7.5,0,1,0-15,0V497H194.72V68.19H322.16a7.5,7.5,0,0,0,0-15H295.93V7.5A7.51,7.51,0,0,0,288.42,0ZM179.72,497H68.81V341.9a12.82,12.82,0,0,1,6-10.89l104.92-66.44Z"/><path class="cls-1" d="M213.46,97.1V472.27a7.5,7.5,0,0,0,15,0V97.1a7.5,7.5,0,0,0-15,0Z"/><path class="cls-1" d="M280.92,97.1V472.27a7.5,7.5,0,0,0,15,0V97.1a7.5,7.5,0,1,0-15,0Z"/><path class="cls-1" d="M247.19,97.1V472.27a7.5,7.5,0,0,0,15,0V97.1a7.5,7.5,0,1,0-15,0Z"/><path class="cls-1" d="M124.27,390.09a7.5,7.5,0,0,0,7.5-7.5v-8.48a7.5,7.5,0,0,0-15,0v8.48A7.5,7.5,0,0,0,124.27,390.09Z"/><path class="cls-1" d="M95.86,390.09a7.49,7.49,0,0,0,7.5-7.5v-8.48a7.5,7.5,0,0,0-15,0v8.48A7.5,7.5,0,0,0,95.86,390.09Z"/><path class="cls-1" d="M152.67,390.09a7.5,7.5,0,0,0,7.5-7.5v-8.48a7.5,7.5,0,0,0-15,0v8.48A7.5,7.5,0,0,0,152.67,390.09Z"/><path class="cls-1" d="M124.27,434.93a7.5,7.5,0,0,0,7.5-7.5V419a7.5,7.5,0,0,0-15,0v8.48A7.5,7.5,0,0,0,124.27,434.93Z"/><path class="cls-1" d="M95.86,434.93a7.5,7.5,0,0,0,7.5-7.5V419a7.5,7.5,0,1,0-15,0v8.48A7.5,7.5,0,0,0,95.86,434.93Z"/><path class="cls-1" d="M152.67,434.93a7.5,7.5,0,0,0,7.5-7.5V419a7.5,7.5,0,0,0-15,0v8.48A7.5,7.5,0,0,0,152.67,434.93Z"/><path class="cls-1" d="M124.27,345.25a7.5,7.5,0,0,0,7.5-7.5v-8.48a7.5,7.5,0,0,0-15,0v8.48A7.5,7.5,0,0,0,124.27,345.25Z"/><path class="cls-1" d="M152.67,345.25a7.5,7.5,0,0,0,7.5-7.5v-8.48a7.5,7.5,0,0,0-15,0v8.48A7.5,7.5,0,0,0,152.67,345.25Z"/><path class="cls-1" d="M124.27,479.77a7.5,7.5,0,0,0,7.5-7.5v-8.48a7.5,7.5,0,0,0-15,0v8.48A7.5,7.5,0,0,0,124.27,479.77Z"/><path class="cls-1" d="M95.86,479.77a7.5,7.5,0,0,0,7.5-7.5v-8.48a7.5,7.5,0,1,0-15,0v8.48A7.5,7.5,0,0,0,95.86,479.77Z"/><path class="cls-1" d="M152.67,479.77a7.5,7.5,0,0,0,7.5-7.5v-8.48a7.5,7.5,0,0,0-15,0v8.48A7.5,7.5,0,0,0,152.67,479.77Z"/><path class="cls-1" d="M417.4,415.88h-62a7.5,7.5,0,1,0,0,15h62a7.5,7.5,0,0,0,0-15Z"/><path class="cls-1" d="M417.4,450.55h-62a7.5,7.5,0,0,0,0,15h62a7.5,7.5,0,0,0,0-15Z"/><path class="cls-1" d="M417.4,311.89h-62a7.5,7.5,0,1,0,0,15h62a7.5,7.5,0,0,0,0-15Z"/><path class="cls-1" d="M417.4,346.55h-62a7.5,7.5,0,0,0,0,15h62a7.5,7.5,0,0,0,0-15Z"/><path class="cls-1" d="M417.4,381.22h-62a7.5,7.5,0,0,0,0,15h62a7.5,7.5,0,0,0,0-15Z"/><path class="cls-1" d="M417.4,242.56h-62a7.5,7.5,0,0,0,0,15h62a7.5,7.5,0,0,0,0-15Z"/><path class="cls-1" d="M417.4,277.23h-62a7.5,7.5,0,0,0,0,15h62a7.5,7.5,0,0,0,0-15Z"/></svg>