<svg id="light" xmlns="http://www.w3.org/2000/svg" viewBox="0 0 512 512"><defs><style>.cls-1{fill:#ef6603;}</style></defs><path class="cls-1" d="M458.67,469.33H53.33A52.81,52.81,0,0,1,0,416V160a52.81,52.81,0,0,1,53.33-53.33H458.67A52.81,52.81,0,0,1,512,160V416A52.81,52.81,0,0,1,458.67,469.33ZM53.33,128c-17.06,0-32,14.93-32,32V416c0,17.07,14.94,32,32,32H458.67c17.06,0,32-14.93,32-32V160c0-17.07-14.94-32-32-32Z"/><path class="cls-1" d="M330.67,128c-6.4,0-10.67-4.27-10.67-10.67V74.67c0-6.4-4.27-10.67-10.67-10.67H202.67C196.27,64,192,68.27,192,74.67v42.66c0,6.4-4.27,10.67-10.67,10.67s-10.66-4.27-10.66-10.67V74.67c0-17.07,14.93-32,32-32H309.33c17.07,0,32,14.93,32,32v42.66C341.33,123.73,337.07,128,330.67,128Z"/><path class="cls-1" d="M256,298.67h-4.27L6.4,213.33C2.13,211.2-2.13,204.8,0,198.4c2.13-4.27,8.53-8.53,14.93-6.4L256,277.33,497.07,192q9.6-3.19,12.8,6.4t-6.4,12.8L258.13,296.53c0,2.14,0,2.14-2.13,2.14Z"/></svg>